<svg xmlns="http://www.w3.org/2000/svg" xmlns:xlink="http://www.w3.org/1999/xlink" version="1.1" x="0px" y="0px" viewBox="0 0 100 100" enable-background="new 0 0 100 100" xml:space="preserve"><g><path d="M90.361,87.753h-68.6c-0.677,0-1.225-0.548-1.225-1.225s0.548-1.225,1.225-1.225h68.6c0.677,0,1.225,0.548,1.225,1.225   S91.038,87.753,90.361,87.753z M73.195,82.428c-0.313,0-0.624-0.119-0.863-0.356c-0.479-0.477-0.482-1.252-0.006-1.732   l16.256-16.374L58.751,58.88l0.452,21.53c0.015,0.677-0.522,1.236-1.199,1.25c-0.673,0.034-1.235-0.522-1.25-1.199L56.292,58.46   l-7.821-1.333c-0.513-0.087-0.914-0.489-1.002-1.002L46.11,48.14l-34.194-0.805l32.998,32.998c0.479,0.479,0.479,1.254,0,1.732   s-1.254,0.479-1.732,0L8.023,46.907c-0.006-0.005-0.011-0.011-0.017-0.016c0,0-0.002-0.003-0.002-0.002   c-0.113-0.117-0.198-0.251-0.256-0.395c-0.06-0.149-0.091-0.313-0.087-0.485c0.004-0.159,0.038-0.311,0.096-0.449   c0.061-0.141,0.147-0.273,0.263-0.389l32.566-32.567c0.009-0.008,0.017-0.017,0.025-0.025l0,0c0.001-0.001,0.002-0.001,0.003-0.002   c0.21-0.197,0.473-0.306,0.741-0.328l0,0c0.001,0,0.001,0,0.002,0c0.075-0.006,0.149-0.004,0.223,0.003   c0.26,0.027,0.512,0.136,0.714,0.328c0.001,0,0.001,0.001,0.002,0.002l0,0c0.009,0.008,0.017,0.016,0.024,0.024l49.647,49.67   c0.021,0.02,0.04,0.04,0.059,0.061c0.051,0.057,0.096,0.118,0.134,0.181l0,0c0.001,0.001,0.001,0.002,0.002,0.003l0,0   c0.001,0.001,0.001,0.002,0.002,0.003v0c0.001,0.001,0.001,0.002,0.002,0.003v0c0.001,0.001,0.002,0,0.002,0.003   c0.002,0.001,0.004,0,0.002,0.003c0.001,0,0.001,0.001,0.002,0.002c0.001,0,0.001,0.002,0.002,0.003   c0,0.003,0.002,0.002,0.001,0.003c0.004,0.002,0.002,0.002,0.002,0.003c0.003,0.003,0.002,0.003,0.002,0.003   c0.004,0.002,0.003,0.003,0.002,0.003c0.002,0.001,0.001,0.003,0.002,0.003c0,0.001,0.001,0.002,0.002,0.003   c-0.001,0.001,0.001,0.001,0.002,0.003c0,0,0.001,0.001,0.001,0.002c0,0,0.002,0,0.002,0.003v0   c0.001,0.001,0.001,0.002,0.002,0.003v0c0.001,0.001,0.001,0.002,0.002,0.003c0,0,0.001,0.002,0.002,0.003l0,0   c0.035,0.066,0.063,0.136,0.086,0.207c0.049,0.155,0.067,0.322,0.05,0.492c-0.015,0.146-0.057,0.291-0.124,0.425l0,0   c0,0.001-0.001,0.002-0.001,0.003l0,0c-0.002,0.001-0.003,0.002-0.002,0.004c-0.002,0.001-0.004,0-0.002,0.003   c-0.001,0.001-0.001,0.001-0.002,0.003c0,0.002-0.002,0.002-0.002,0.003c0,0.001-0.001,0.001-0.001,0.002   c-0.06,0.114-0.136,0.216-0.226,0.304L74.064,82.066C73.825,82.307,73.51,82.428,73.195,82.428z M57.729,56.22l29.799,5.081   L43.306,17.058l5.047,29.654c0.002,0.013,0.005,0.027,0.007,0.041l1.379,8.105l7.937,1.353   C57.693,56.214,57.712,56.217,57.729,56.22z M11.776,44.881l33.915,0.798l-5.048-29.665L11.776,44.881z"></path></g></svg>