<svg xmlns:dc="http://purl.org/dc/elements/1.1/" xmlns:cc="http://creativecommons.org/ns#" xmlns:rdf="http://www.w3.org/1999/02/22-rdf-syntax-ns#" xmlns:svg="http://www.w3.org/2000/svg" xmlns="http://www.w3.org/2000/svg" xmlns:sodipodi="http://sodipodi.sourceforge.net/DTD/sodipodi-0.dtd" xmlns:inkscape="http://www.inkscape.org/namespaces/inkscape" version="1.1" x="0px" y="0px" viewBox="0 0 100 100"><path  d="M 50,5 8.360915,40.246485 C 6.351485,41.38064 5,43.534229 5,46.014529 L 5,88.381443 C 5,92.048774 7.95353,95 11.62202,95 l 76.755915,0 C 92.046425,95 95,92.048774 95,88.381443 l 0,-42.366914 c 0,-2.478483 -1.34973,-4.630417 -3.35673,-5.765227 L 50,5 z m 0.54279,18.400658 c 3.43935,2.7e-5 6.496425,0.669 9.17154,2.00609 2.675025,1.337144 4.718655,3.237832 6.13125,5.700564 1.41255,2.462778 2.119185,5.153756 2.11923,8.073573 0,3.479245 -1.070505,6.623717 -3.21327,9.434394 -2.68875,3.547461 -6.135075,5.320995 -10.33875,5.320995 -1.13283,0 -1.986165,-0.197573 -2.559375,-0.593256 C 51.28016,52.947339 50.89838,52.3681 50.70731,51.604032 c -1.610505,1.555425 -3.466935,2.332242 -5.56875,2.332242 -2.265615,0 -4.145985,-0.781239 -5.64048,-2.343488 -1.49445,-1.562241 -2.24154,-3.639574 -2.24154,-6.231957 0,-3.20635 0.90126,-6.132326 2.70279,-8.77929 2.183715,-3.219985 4.980465,-4.830343 8.3925,-4.830365 2.42946,2.2e-5 4.22442,0.927929 5.384565,2.783505 l 0.511875,-2.27179 5.405625,0 -3.092355,14.673852 c -0.19107,0.927803 -0.286875,1.529373 -0.286875,1.802249 0,0.341106 0.07925,0.595623 0.23625,0.766169 0.156915,0.170551 0.344115,0.255858 0.5625,0.255853 0.65511,9e-6 1.500975,-0.395138 2.53827,-1.186504 1.39212,-1.036944 2.51937,-2.428809 3.37923,-4.175253 0.859815,-1.746436 1.289475,-3.554367 1.28952,-5.423622 0,-3.35642 -1.21563,-6.162688 -3.645,-8.420802 -2.429415,-2.258074 -5.82039,-3.387981 -10.174185,-3.388008 -3.69873,2.7e-5 -6.83514,0.754306 -9.407835,2.261952 -2.57274,1.507694 -4.50999,3.628489 -5.813415,6.364102 -1.30347,2.735658 -1.95471,5.585171 -1.95471,8.545926 0,2.878906 0.72612,5.49806 2.17971,7.858481 1.4535,2.360426 3.49407,4.083055 6.121395,5.16776 2.62728,1.084701 5.63346,1.626517 9.01827,1.626526 3.26196,-9e-6 6.066045,-0.453499 8.413605,-1.360825 2.34747,-0.907335 4.238325,-2.267818 5.671395,-4.082474 l 4.36077,0 c -1.364895,2.769739 -3.46077,4.938421 -6.285915,6.507495 -3.23469,1.801012 -7.178175,2.701959 -11.83221,2.701968 -4.504005,-9e-6 -8.393445,-0.760325 -11.66904,-2.281628 -3.275595,-1.521321 -5.712885,-3.766246 -7.30971,-6.733838 -1.59687,-2.967583 -2.39481,-6.197358 -2.39481,-9.690251 0,-3.833972 0.907245,-7.406382 2.7225,-10.715089 1.815165,-3.308666 4.298895,-5.791607 7.451685,-7.449388 3.152745,-1.657732 6.756255,-2.486855 10.809855,-2.486882 z m -1.719855,12.035148 c -1.17378,1.3e-5 -2.25918,0.453508 -3.255435,1.360825 -0.996345,0.907348 -1.74645,2.200424 -2.25144,3.878629 -0.50499,1.678237 -0.75798,3.164464 -0.75798,4.46064 0,1.7328 0.35181,3.009379 1.05471,3.82802 0.702855,0.818649 1.572705,1.227279 2.61,1.227275 0.77796,4e-6 1.50849,-0.190133 2.19096,-0.572167 0.518625,-0.272881 1.030635,-0.703832 1.53558,-1.290535 0.723375,-0.83228 1.34766,-2.046091 1.87317,-3.642453 0.525375,-1.596344 0.78741,-3.083984 0.7875,-4.462047 0,-1.541768 -0.357885,-2.725595 -1.07442,-3.551074 -0.71649,-0.825451 -1.62081,-1.2371 -2.712645,-1.237113 z M 9.5,44.981256 41.23625,71.846303 9.5,90.164011 9.5,44.981256 z m 81,0.0014 0,45.181348 L 58.76375,71.846289 90.5,44.98265 z M 42.60452,73.004677 50,79.26475 l 7.395435,-6.260073 29.971395,17.298498 -74.73375,0 29.97144,-17.298498 z"></path></svg>